<svg width="39" height="39" viewBox="0 0 39 39" fill="none" xmlns="http://www.w3.org/2000/svg">
<g clip-path="url(#clip0_11_612)">
<path d="M7.12117 0C3.17635 0 0 3.17635 0 7.12117V31.8789C0 35.8237 3.17635 39 7.12117 39H20.5396V23.7535H16.508V18.2642H20.5396V13.5745C20.5396 9.88993 22.9217 6.50692 28.4091 6.50692C30.6308 6.50692 32.2737 6.72021 32.2737 6.72021L32.1445 11.8463C32.1445 11.8463 30.469 11.8305 28.6406 11.8305C26.6618 11.8305 26.3445 12.7422 26.3445 14.2558V18.2642H32.3018L32.0422 23.7535H26.3445V39.0001H31.8788C35.8236 39.0001 39 35.8237 39 31.8789V7.12121C39 3.17639 35.8236 3.9e-05 31.8788 3.9e-05H7.12113L7.12117 0Z" fill="#0044C4"/>
</g>
<defs>
<clipPath id="clip0_11_612">
<rect width="39" height="39" fill="white"/>
</clipPath>
</defs>
</svg>
