<svg width="39" height="38" viewBox="0 0 39 38" fill="none" xmlns="http://www.w3.org/2000/svg">
<path d="M8.86133 12.5567V37.5953H0.482422V12.5567H8.86133ZM9.39453 4.82536C9.41146 6.05497 8.98405 7.08245 8.1123 7.90781C7.24056 8.73316 6.09375 9.14584 4.67188 9.14584H4.62109C3.23307 9.14584 2.11589 8.73316 1.26953 7.90781C0.423177 7.08245 0 6.05497 0 4.82536C0 3.57891 0.435872 2.54721 1.30762 1.73028C2.17936 0.913349 3.31771 0.504883 4.72266 0.504883C6.1276 0.504883 7.25326 0.913349 8.09961 1.73028C8.94596 2.54721 9.3776 3.57891 9.39453 4.82536ZM39 23.2442V37.5953H30.6465V24.2044C30.6465 22.4357 30.3037 21.0503 29.6182 20.0481C28.9326 19.0459 27.862 18.5448 26.4062 18.5448C25.3398 18.5448 24.4469 18.8353 23.7275 19.4165C23.0081 19.9976 22.4707 20.7176 22.1152 21.5767C21.929 22.082 21.8359 22.7642 21.8359 23.6232V37.5953H13.4824C13.5163 30.8746 13.5332 25.4255 13.5332 21.2482C13.5332 17.0709 13.5247 14.578 13.5078 13.7695L13.4824 12.5567H21.8359V16.195H21.7852C22.1237 15.656 22.4707 15.1844 22.8262 14.7801C23.1816 14.3759 23.6598 13.938 24.2607 13.4663C24.8617 12.9947 25.598 12.6283 26.4697 12.3673C27.3415 12.1062 28.3105 11.9756 29.377 11.9756C32.2715 11.9756 34.599 12.9315 36.3594 14.8433C38.1198 16.7551 39 19.5554 39 23.2442Z" fill="#0044C4"/>
</svg>
